<?xml version="1.0" encoding="utf-8"?>
<!-- Generator: Adobe Illustrator 16.0.0, SVG Export Plug-In . SVG Version: 6.00 Build 0)  -->
<!DOCTYPE svg PUBLIC "-//W3C//DTD SVG 1.1//EN" "http://www.w3.org/Graphics/SVG/1.1/DTD/svg11.dtd">
<svg version="1.1" id="Export" xmlns="http://www.w3.org/2000/svg" xmlns:xlink="http://www.w3.org/1999/xlink" x="0px" y="0px"
	 width="612px" height="792px" viewBox="0 0 612 792" enable-background="new 0 0 612 792" xml:space="preserve">
<path fill="#FFFFFF" d="M459,549H61.2V273.6h79.406c0,0,21.084-27.417,66.402-61.2H30.6C13.678,212.4,0,226.14,0,243v336.6
	C0,596.521,13.678,610.2,30.6,610.2h459c16.922,0,30.6-13.679,30.6-30.601V464.973L459,515.31V549z M408.846,336.33v108.66
	L612,285.84L408.846,132.871v95.809C162.18,228.679,162.18,472.5,162.18,472.5C232.009,357.811,274.972,336.33,408.846,336.33z"/>
</svg>
